<?xml version="1.0" standalone="no"?>
<!DOCTYPE svg PUBLIC "-//W3C//DTD SVG 20010904//EN"
 "http://www.w3.org/TR/2001/REC-SVG-20010904/DTD/svg10.dtd">
<svg version="1.0" xmlns="http://www.w3.org/2000/svg"
 width="402.000000pt" height="402.000000pt" viewBox="0 0 402.000000 402.000000"
 preserveAspectRatio="xMidYMid meet">
<metadata>
Created by potrace 1.14, written by Peter Selinger 2001-2017
</metadata>
<g transform="translate(0.000000,402.000000) scale(0.100000,-0.100000)"
fill="#000000" stroke="none">
<path d="M188 4003 c-77 -48 -51 -178 37 -183 55 -4 65 -1 65 20 0 17 -5 19
-27 15 -41 -7 -73 19 -73 60 0 49 29 72 79 65 19 -2 33 23 18 32 -20 13 -71 8
-99 -9z"/>
<path d="M569 3991 c-21 -22 -29 -39 -29 -66 0 -46 23 -92 52 -101 66 -21 122
12 132 79 15 97 -87 155 -155 88z m101 -32 c23 -42 -2 -109 -40 -109 -19 0
-50 45 -45 65 2 6 6 22 9 37 9 40 56 45 76 7z"/>
<path d="M978 4008 c-2 -7 -4 -51 -3 -98 l0 -85 63 -3 c57 -3 63 -1 60 15 -3
17 -8 19 -55 22 -22 1 -23 5 -23 81 0 72 -2 80 -19 80 -10 0 -21 -6 -23 -12z"/>
<path d="M1352 3920 l0 -100 59 0 c58 0 84 14 58 31 -8 5 -24 8 -37 6 -31 -6
-35 4 -36 86 -1 64 -3 70 -23 73 -20 3 -21 0 -21 -96z"/>
<path d="M1730 3919 l0 -99 64 0 c55 0 64 2 62 18 -2 13 -12 17 -42 17 -34 0
-38 3 -38 25 0 21 4 25 34 25 48 0 48 28 0 35 -49 7 -47 34 3 38 28 2 37 8 37
21 0 15 -9 18 -60 18 l-60 0 0 -98z"/>
<path d="M2170 4013 c-76 -29 -91 -136 -25 -179 24 -16 110 -22 123 -9 3 3 7
28 8 55 l3 50 -39 0 c-41 0 -57 -22 -25 -34 8 -3 15 -14 15 -25 0 -15 -6 -19
-27 -16 -32 3 -53 29 -53 65 0 39 31 63 74 58 25 -3 37 1 41 10 3 8 3 17 1 20
-8 7 -80 12 -96 5z"/>
<path d="M2530 3919 l0 -99 64 0 c55 0 64 2 62 18 -2 12 -13 17 -34 18 -47 2
-48 2 -49 24 -2 20 9 24 52 21 14 -1 21 5 22 19 2 17 -4 20 -35 20 -31 0 -38
4 -39 20 -2 17 4 20 38 20 33 0 40 3 37 18 -3 14 -15 17 -61 18 l-57 1 0 -98z"/>
<path d="M3229 4007 c-1 -6 -2 -49 -3 -95 -2 -97 2 -102 76 -91 60 10 85 30
94 75 9 47 -2 81 -32 101 -32 21 -133 28 -135 10z m109 -40 c6 -5 12 -27 12
-48 0 -40 -26 -69 -62 -69 -15 0 -18 9 -18 63 0 35 3 66 6 69 7 7 45 -2 62
-15z"/>
<path d="M3650 3951 c0 -91 11 -118 52 -129 38 -10 55 -7 83 14 28 21 37 170
11 180 -25 10 -29 0 -31 -77 -1 -65 -11 -89 -35 -89 -25 0 -34 24 -35 91 -1
66 -3 73 -23 76 -21 3 -22 -1 -22 -66z"/>
<path d="M546 3587 c-52 -52 -29 -101 83 -177 87 -58 101 -71 127 -111 13 -22
31 -39 39 -39 8 0 27 -13 42 -30 14 -16 32 -30 40 -30 7 0 13 -4 13 -8 0 -11
76 -61 104 -68 14 -3 28 2 40 14 16 18 16 23 2 53 -18 42 -47 75 -108 124 -26
20 -46 41 -43 45 5 7 -80 89 -94 91 -44 5 -65 22 -56 46 2 6 -3 17 -11 23 -8
7 -14 18 -14 25 0 29 -36 54 -87 61 -47 6 -54 4 -77 -19z"/>
<path d="M3316 3602 c-4 -6 -12 -9 -19 -7 -7 3 -17 1 -23 -3 -14 -8 -67 -102
-59 -102 3 0 1 -9 -5 -20 -6 -11 -14 -19 -18 -19 -24 4 -42 -6 -84 -44 -27
-24 -48 -48 -48 -54 0 -6 -23 -28 -50 -49 -47 -36 -88 -86 -103 -127 -10 -26
10 -57 35 -57 22 0 157 85 171 107 4 7 21 20 37 28 16 8 41 33 57 56 15 23 41
48 58 58 16 9 34 21 40 27 5 6 31 26 57 43 26 17 53 41 59 52 13 25 4 82 -15
98 -20 17 -82 25 -90 13z"/>
<path d="M1748 3572 c-14 -2 -32 -10 -38 -18 -7 -8 -18 -14 -25 -14 -15 0 -62
-85 -69 -125 -7 -39 8 -93 38 -133 16 -22 27 -54 31 -93 7 -55 5 -64 -31 -133
-21 -41 -47 -79 -58 -86 -11 -7 -50 -14 -86 -15 -36 -1 -78 -8 -94 -14 -22 -9
-37 -9 -56 -1 -14 6 -36 9 -50 8 -20 -3 -25 3 -31 30 -9 43 -56 102 -100 126
-70 38 -176 -3 -167 -66 3 -19 -1 -28 -13 -31 -12 -3 -17 -14 -17 -36 1 -16 5
-28 9 -25 5 3 6 -2 3 -10 -3 -9 -21 -25 -40 -37 -48 -30 -62 -63 -68 -165 -12
-187 -5 -405 12 -430 16 -22 80 -62 110 -68 17 -4 32 -11 32 -15 0 -11 97 -51
126 -51 14 0 34 -5 45 -11 11 -6 34 -11 51 -11 16 -1 32 -7 35 -14 2 -6 12
-11 21 -9 9 1 22 -2 29 -7 8 -6 29 -6 58 0 28 6 45 6 45 0 0 -12 43 1 52 16 5
8 8 7 8 -2 0 -7 5 -10 10 -7 6 4 17 1 25 -5 11 -9 15 -9 15 -1 0 6 7 11 16 11
8 0 12 5 9 10 -6 10 43 62 100 105 46 35 54 45 48 60 -8 22 24 65 48 65 15 0
19 5 15 15 -3 8 -1 15 4 15 6 0 10 16 10 35 0 19 -4 35 -10 35 -5 0 -1 20 10
45 17 39 18 47 5 51 -23 9 -18 32 12 46 35 17 45 43 12 33 -23 -8 -23 -7 3 23
l26 32 -15 62 c-8 35 -16 78 -17 96 -2 19 -13 46 -24 61 -12 17 -17 33 -12 41
4 7 4 27 -1 44 -9 29 -4 127 8 170 3 10 1 16 -5 13 -6 -4 -6 9 0 36 18 83 28
207 16 207 -4 0 -1 15 6 33 7 17 12 37 11 42 -6 49 -38 73 -87 67z"/>
<path d="M2136 3551 c-24 -26 -28 -60 -12 -93 8 -15 11 -28 7 -28 -3 0 -5 -21
-4 -47 2 -27 3 -59 3 -73 0 -14 4 -36 9 -50 15 -40 23 -98 11 -80 -11 16 -6
-35 10 -113 4 -20 4 -40 -1 -43 -12 -7 -12 -74 0 -74 6 0 -4 -15 -20 -32 -20
-22 -28 -40 -25 -54 3 -11 1 -36 -5 -55 -5 -19 -12 -45 -15 -59 -2 -14 -7 -30
-9 -37 -2 -7 0 -15 6 -18 5 -4 7 -10 4 -15 -3 -4 2 -10 10 -14 8 -3 15 -13 15
-22 0 -14 -2 -15 -17 -3 -14 12 -16 12 -11 -1 2 -8 17 -21 31 -28 29 -14 36
-39 13 -48 -12 -5 -12 -13 4 -50 11 -24 15 -44 10 -44 -6 0 -10 -16 -10 -35 0
-19 4 -35 10 -35 5 0 7 -7 4 -15 -4 -10 0 -15 11 -15 26 0 57 -41 52 -67 -3
-16 3 -27 22 -39 14 -10 30 -23 34 -31 4 -7 14 -13 20 -13 17 0 72 -61 72 -80
1 -8 6 -14 13 -13 7 2 12 -2 12 -8 0 -8 4 -8 13 -1 10 8 52 10 52 2 0 -1 10
-3 23 -6 12 -2 22 1 22 7 0 5 5 7 10 4 24 -15 82 -14 118 1 20 10 40 17 44 16
3 -1 28 5 55 13 26 8 58 15 71 15 22 0 102 36 112 50 3 4 17 10 32 13 26 7
107 56 109 66 0 3 2 15 4 26 22 114 18 436 -6 512 -7 21 -25 41 -55 60 -41 26
-55 43 -36 43 17 0 11 61 -6 68 -10 4 -17 18 -17 36 0 19 -8 35 -25 47 -34 26
-106 31 -140 10 -39 -24 -88 -83 -96 -117 -9 -38 -23 -56 -38 -47 -17 11 -36
12 -36 2 0 -14 -46 -11 -86 6 -25 10 -41 12 -54 5 -9 -5 -19 -8 -21 -6 -2 2
-21 7 -42 10 -21 3 -45 13 -53 20 -24 25 -85 150 -86 176 0 37 21 112 37 130
28 31 46 90 39 128 -9 48 -44 112 -69 126 -10 6 -25 17 -33 24 -20 18 -76 15
-96 -7z"/>
<path d="M258 3364 c-26 -13 -32 -26 -31 -61 1 -7 -3 -13 -8 -13 -16 0 -10
-18 16 -47 55 -61 65 -70 112 -92 26 -13 62 -34 78 -46 34 -25 129 -59 147
-53 13 5 40 -24 51 -55 8 -20 47 -38 98 -44 32 -3 37 -1 42 19 14 55 -20 114
-74 128 -24 7 -49 24 -66 45 -45 56 -115 105 -149 102 -24 -2 -29 1 -26 19 3
23 -35 57 -105 93 -49 25 -50 25 -85 5z"/>
<path d="M3622 3364 c-53 -22 -123 -76 -120 -93 4 -27 -12 -44 -28 -30 -18 15
-62 -13 -129 -81 -29 -29 -64 -55 -85 -60 -45 -13 -71 -50 -73 -103 -2 -40 -1
-42 29 -45 40 -4 102 21 111 45 11 30 41 64 47 54 10 -15 118 25 171 64 17 12
48 30 70 40 22 10 50 30 63 44 13 14 32 36 43 48 13 14 17 27 13 35 -5 7 -7
20 -6 28 3 17 -32 53 -59 62 -8 3 -30 0 -47 -8z"/>
<path d="M172 2997 c-22 -25 -42 -61 -42 -76 0 -19 65 -80 113 -105 66 -35
165 -69 177 -61 5 3 10 2 10 -3 0 -5 15 -9 34 -10 18 -1 60 -15 92 -32 67 -35
85 -37 107 -12 51 57 16 117 -64 109 -43 -3 -50 -1 -88 35 -23 21 -46 38 -52
38 -6 0 -25 11 -43 25 -18 14 -37 25 -43 25 -5 0 -18 9 -29 21 -25 28 -93 63
-126 65 -16 2 -34 -6 -46 -19z"/>
<path d="M3720 3011 c-30 -7 -106 -47 -114 -60 -3 -4 -37 -27 -75 -50 -38 -23
-85 -58 -105 -77 -19 -18 -38 -30 -41 -24 -10 17 -79 8 -102 -13 -28 -25 -29
-39 -5 -79 15 -27 21 -29 56 -25 21 3 42 9 45 14 12 18 77 41 133 48 32 3 60
11 63 16 4 5 14 9 23 9 32 0 157 68 191 105 l35 36 -22 44 c-24 49 -45 64 -82
56z"/>
<path d="M263 2465 c-44 -31 -35 -138 14 -163 57 -30 212 -30 346 -1 51 11 99
21 107 22 8 1 21 8 29 15 12 12 10 17 -15 38 -45 38 -64 42 -180 43 -59 1
-110 5 -114 11 -21 34 -153 59 -187 35z"/>
<path d="M3607 2470 c-26 -5 -64 -18 -84 -30 -29 -17 -55 -21 -147 -24 -117
-3 -136 -8 -174 -49 l-24 -25 21 -11 c35 -19 202 -50 286 -52 177 -6 229 19
228 113 0 41 -4 55 -23 70 -12 10 -25 17 -29 17 -3 -1 -28 -5 -54 -9z"/>
<path d="M1333 1877 c-18 -6 -33 -15 -33 -19 0 -4 -13 -8 -29 -8 -16 0 -42 -5
-58 -12 -15 -6 -41 -12 -58 -13 -16 -1 -61 -18 -99 -38 -38 -20 -73 -37 -79
-37 -5 0 -26 -14 -47 -30 l-38 -30 -8 -98 c-13 -171 -2 -407 22 -454 8 -15 21
-28 29 -28 8 0 15 -4 15 -9 0 -5 9 -13 20 -16 20 -6 24 -35 8 -60 -9 -14 2
-29 27 -39 11 -5 15 -10 9 -13 -15 -5 -6 -48 15 -67 17 -15 77 -30 114 -28 23
1 82 46 103 78 9 13 22 41 29 61 11 33 17 38 47 39 18 1 42 4 53 7 11 2 29 -1
40 -7 11 -6 50 -11 87 -12 41 0 76 -7 90 -16 13 -8 41 -49 62 -91 34 -67 37
-80 30 -119 -4 -24 -8 -51 -9 -61 -1 -9 -11 -27 -22 -40 -24 -26 -43 -79 -43
-117 0 -36 47 -128 73 -142 12 -6 24 -14 27 -19 3 -4 21 -10 41 -14 30 -6 40
-3 58 16 11 13 22 30 22 38 2 29 -3 56 -12 68 -6 6 -6 14 -1 16 4 3 7 23 5 44
-7 88 -11 121 -16 129 -9 16 -17 85 -9 80 5 -3 3 30 -4 72 -7 42 -9 82 -6 87
10 15 11 75 2 75 -5 0 4 13 18 28 20 21 27 39 26 66 -1 21 5 56 13 78 16 46
10 93 -16 122 -15 18 -15 18 6 12 18 -6 22 -4 17 7 -3 9 -16 18 -30 21 -25 7
-34 41 -12 48 9 3 8 15 -4 46 -9 24 -12 44 -7 48 5 3 9 21 9 40 0 22 -4 33
-11 29 -6 -4 -9 0 -7 11 2 10 -1 19 -7 20 -36 4 -57 31 -59 75 -1 15 -76 88
-76 73 0 -4 -16 9 -35 30 -19 21 -35 44 -35 51 0 19 -27 26 -56 15 -33 -13
-37 -13 -28 2 5 7 2 9 -8 5 -9 -3 -21 0 -27 6 -8 8 -11 8 -11 0 0 -13 -58 -14
-66 -1 -6 9 -7 9 -51 -5z"/>
<path d="M2487 1883 c-5 -4 -13 -9 -18 -9 -5 -1 -10 -2 -11 -4 -11 -8 -44 -7
-49 2 -5 7 -13 6 -28 -4 -11 -8 -18 -17 -15 -21 8 -8 -59 -77 -75 -77 -6 0
-11 -3 -11 -7 0 -5 -14 -17 -30 -28 -21 -14 -30 -28 -30 -47 0 -31 -31 -68
-56 -68 -10 0 -14 -6 -10 -15 3 -8 1 -15 -4 -15 -6 0 -10 -16 -10 -35 0 -19 4
-35 9 -35 5 0 1 -21 -8 -47 -12 -36 -13 -47 -3 -50 21 -8 13 -31 -15 -45 -35
-17 -45 -43 -12 -33 23 8 23 8 -3 -23 -28 -33 -28 -35 1 -140 7 -24 10 -51 7
-60 -4 -11 5 -30 23 -50 17 -18 26 -32 20 -32 -11 0 -12 -67 0 -74 4 -3 2 -38
-4 -78 -7 -40 -10 -74 -5 -76 4 -1 3 -22 -2 -45 -23 -107 -30 -207 -15 -207 5
0 4 -7 -3 -15 -19 -23 -16 -81 5 -105 22 -24 86 -28 105 -5 7 8 18 15 24 15
16 1 40 37 61 94 16 41 17 55 7 92 -7 25 -23 61 -36 82 -13 20 -27 61 -31 90
-6 48 -4 59 31 126 21 41 47 80 59 87 11 7 49 14 85 15 36 1 77 7 92 14 17 8
37 10 55 4 15 -4 39 -8 52 -8 19 -1 27 -8 33 -34 13 -48 85 -128 125 -138 13
-4 46 -1 74 6 42 10 53 18 64 44 9 22 10 35 3 44 -8 9 -6 12 5 12 9 0 21 9 27
20 7 13 7 20 1 20 -6 0 -7 7 -4 17 4 11 3 14 -5 9 -30 -19 4 25 38 49 21 14
43 39 49 53 20 50 28 294 16 451 -8 93 -21 113 -93 146 -20 9 -62 30 -93 46
-31 16 -72 29 -91 29 -19 0 -39 5 -44 10 -6 6 -25 12 -42 13 -18 1 -32 6 -32
11 0 5 -3 7 -6 4 -3 -4 -21 0 -40 8 -32 13 -91 13 -113 0 -5 -4 -11 1 -13 10
-2 9 -7 12 -11 7z"/>
<path d="M312 1709 c-32 -8 -48 -19 -63 -42 -25 -42 -25 -101 1 -127 33 -33
127 -23 190 20 20 14 46 18 132 18 111 -1 130 5 181 52 25 24 10 33 -98 60
-103 25 -277 35 -343 19z"/>
<path d="M3450 1709 c-101 -7 -227 -35 -254 -55 -20 -14 -20 -14 0 -29 59 -47
65 -49 175 -51 94 -2 117 -6 162 -28 69 -34 130 -40 160 -16 18 15 22 27 20
70 -2 66 -27 95 -91 105 -70 11 -80 11 -172 4z"/>
<path d="M606 1313 c-11 -3 -37 -16 -59 -30 -21 -13 -46 -26 -56 -28 -9 -1
-36 -6 -61 -10 -100 -15 -216 -68 -267 -121 -36 -36 -40 -52 -20 -87 39 -70
75 -75 157 -21 30 20 57 39 60 43 3 3 16 12 30 19 74 39 109 63 149 104 10 10
22 14 29 9 32 -19 120 17 122 50 1 23 -44 81 -60 78 -3 -1 -14 -4 -24 -6z"/>
<path d="M3287 1293 c-9 -11 -14 -23 -10 -26 3 -4 1 -7 -5 -7 -18 0 -14 -24 8
-52 15 -20 29 -26 60 -26 22 0 42 3 45 8 3 4 24 -10 47 -32 24 -21 57 -46 73
-54 48 -23 74 -40 98 -61 36 -32 95 -65 124 -68 32 -3 78 38 89 79 5 21 0 33
-27 62 -34 36 -159 104 -191 104 -9 0 -19 4 -23 9 -3 5 -31 12 -63 16 -53 6
-119 30 -133 48 -3 4 -21 10 -40 13 -26 4 -38 1 -52 -13z"/>
<path d="M700 1040 c-44 -8 -80 -27 -80 -43 -1 -24 -37 -56 -58 -51 -11 3 -23
1 -26 -5 -4 -6 -18 -11 -30 -11 -13 0 -40 -11 -61 -25 -20 -14 -62 -39 -93
-55 -53 -26 -68 -39 -121 -97 -39 -43 3 -133 61 -133 47 0 162 82 155 111 -6
21 16 32 31 17 13 -13 64 23 132 93 27 28 58 49 77 54 41 8 72 51 77 104 4 45
-6 51 -64 41z"/>
<path d="M3186 1014 c-5 -17 0 -41 14 -70 17 -34 29 -46 56 -53 21 -6 65 -38
111 -81 67 -63 79 -70 105 -65 24 6 28 3 28 -14 0 -25 38 -62 100 -95 40 -22
52 -24 77 -15 46 15 76 88 49 117 -8 9 -28 32 -44 49 -16 18 -51 42 -78 54
-27 12 -58 30 -69 40 -29 26 -153 71 -160 58 -7 -10 -37 23 -48 54 -8 22 -65
47 -106 47 -23 0 -30 -5 -35 -26z"/>
<path d="M945 845 c-28 -19 -65 -42 -82 -51 -18 -10 -33 -23 -33 -30 0 -6 -14
-17 -31 -24 -17 -7 -42 -30 -55 -51 -13 -22 -39 -49 -57 -61 -19 -13 -59 -40
-90 -61 -67 -44 -88 -78 -76 -123 15 -53 52 -69 119 -52 36 9 74 44 65 58 -3
4 2 10 10 14 8 3 15 16 15 29 0 28 17 47 42 47 22 0 118 87 118 106 0 7 10 19
23 25 36 20 113 104 125 137 8 23 7 35 -4 51 -20 28 -31 27 -89 -14z"/>
<path d="M2916 854 c-14 -13 -14 -19 -1 -50 19 -47 46 -80 98 -120 24 -19 50
-45 57 -58 16 -31 84 -86 112 -91 26 -5 28 -7 33 -36 3 -13 11 -29 20 -35 8
-6 12 -13 9 -17 -12 -12 23 -48 56 -57 55 -15 79 -12 105 15 50 49 27 110 -62
161 -18 10 -33 22 -33 26 0 4 -15 15 -32 24 -36 18 -74 57 -83 83 -3 10 -21
25 -40 34 -19 9 -35 20 -35 25 0 12 -155 112 -173 112 -9 0 -23 -7 -31 -16z"/>
<path d="M150 100 l0 -101 43 2 c57 3 84 14 97 40 10 18 8 26 -9 50 -12 16
-17 29 -12 29 19 0 23 41 5 61 -13 14 -30 19 -71 19 l-53 0 0 -100z m85 45 c0
-30 -40 -27 -41 3 -1 18 3 22 20 20 13 -2 21 -10 21 -23z m4 -64 c17 -11 7
-41 -14 -41 -8 0 -18 -1 -22 -2 -4 -2 -9 9 -10 25 -2 28 17 36 46 18z"/>
<path d="M758 168 c-2 -18 -2 -63 0 -100 3 -59 6 -68 23 -68 21 0 20 -2 23
120 1 76 0 80 -21 80 -17 0 -22 -7 -25 -32z"/>
<path d="M1295 102 l0 -99 60 1 c49 1 60 4 63 18 3 15 -4 18 -37 18 -37 0 -41
2 -41 25 0 21 4 25 24 21 14 -2 33 2 43 9 17 13 17 14 0 21 -10 4 -28 7 -40 8
-33 2 -30 41 3 42 44 1 50 4 50 19 0 12 -14 15 -63 15 l-62 0 0 -98z"/>
<path d="M1893 103 c2 -91 3 -98 22 -98 16 0 20 7 22 33 1 19 4 36 7 39 12 12
35 -8 41 -37 7 -33 30 -49 45 -34 11 11 -9 84 -22 84 -5 0 0 12 11 26 37 47 4
84 -75 84 l-52 0 1 -97z m91 50 c4 -9 0 -23 -8 -31 -20 -20 -46 0 -39 28 6 24
38 26 47 3z"/>
<path d="M2500 101 l0 -98 58 2 c74 3 72 2 72 20 0 11 -12 15 -44 15 -41 0
-43 1 -38 26 3 18 10 25 26 23 38 -3 46 1 46 19 0 13 -8 17 -34 16 -22 -1 -37
3 -40 12 -7 17 24 35 52 29 20 -3 37 17 25 29 -4 3 -33 6 -65 6 l-58 0 0 -99z"/>
<path d="M3134 173 c-3 -16 -14 -55 -25 -87 -24 -75 -24 -86 1 -86 13 0 22 9
26 25 3 14 10 26 15 26 35 5 45 1 57 -23 13 -27 35 -37 46 -19 3 5 -7 50 -22
100 -27 90 -27 91 -59 91 -27 0 -34 -4 -39 -27z m50 -45 c9 -35 8 -38 -14 -38
-16 0 -18 4 -10 24 5 13 6 27 3 30 -4 3 -2 6 4 6 6 0 13 -10 17 -22z"/>
<path d="M3719 168 c-5 -128 13 -164 80 -162 62 1 75 20 79 114 4 79 4 80 -20
80 -23 0 -24 -3 -24 -60 2 -78 -7 -100 -39 -100 -19 0 -25 6 -27 23 -2 34 -6
90 -7 115 -1 15 -7 22 -21 22 -16 0 -20 -7 -21 -32z"/>
</g>
</svg>
